<svg width="67" height="56" viewBox="0 0 67 56" fill="none" xmlns="http://www.w3.org/2000/svg">
<g clip-path="url(#clip0_318_10)">
<path d="M51.8267 18.7716L40.806 29.7965L37.2147 26.2038L48.2355 15.179L33.5112 0.449219L18.8093 15.1565L29.8301 26.1814L26.2388 29.774L15.218 18.7491L0.448853 33.5238L22.4679 55.5511L33.4887 44.5262L44.5095 55.5511L66.5286 33.5238L51.8043 18.794L51.8267 18.7716ZM26.0368 15.2014L33.5112 7.72428L40.9855 15.2014L33.5112 22.6786L26.0368 15.2014ZM7.54165 33.5238L15.016 26.0467L22.4904 33.5238L15.016 41.0009L7.54165 33.5238ZM44.6217 48.2536L33.4214 37.0491L22.3782 48.0964L18.7869 44.5037L33.4438 29.8414L37.0351 33.434L48.2355 44.6609L44.6442 48.2536H44.6217ZM44.3748 33.5238L51.8492 26.0467L59.3236 33.5238L51.8492 41.0009L44.3748 33.5238Z" fill="white"/>
</g>
<defs>
<clipPath id="clip0_318_10">
<rect width="67" height="56" fill="white"/>
</clipPath>
</defs>
</svg>
